<mxfile host="app.diagrams.net" modified="2024-01-19T12:13:38.866Z" agent="Mozilla/5.0 (Windows NT 10.0; Win64; x64) AppleWebKit/537.36 (KHTML, like Gecko) Chrome/120.0.0.0 Safari/537.36 Edg/120.0.0.0" version="22.1.21" etag="fFMYmVa1JPjZ_Dl2FBsM" type="github">
  <diagram name="Page-1" id="iaW7S8wdf6JtYlRZKDyi">
    <mxGraphModel>
      <root>
        <mxCell id="0" />
        <mxCell id="1" parent="0" />
      </root>
    </mxGraphModel>
  </diagram>
</mxfile>
